<?xml version="1.0" encoding="UTF-8"?>
<svg id="Layer_1" xmlns="http://www.w3.org/2000/svg" version="1.1" xmlns:xlink="http://www.w3.org/1999/xlink" viewBox="0 0 454.47 159.22">
  <!-- Generator: Adobe Illustrator 30.0.0, SVG Export Plug-In . SVG Version: 2.1.1 Build 123)  -->
  <defs>
    <style>
      .st0, .st1 {
        isolation: isolate;
      }

      .st1 {
        fill: #a3a3a2;
        font-family: ArialMT, Arial;
        font-size: 21px;
        letter-spacing: .1em;
      }

      .st2 {
        fill: url(#linear-gradient);
      }
    </style>
    <linearGradient id="linear-gradient" x1="7.45" y1="63.31" x2="428.1" y2="63.31" gradientUnits="userSpaceOnUse">
      <stop offset="0" stop-color="#457ea6"/>
      <stop offset=".28" stop-color="#687782" stop-opacity=".78"/>
      <stop offset=".78" stop-color="#a66d45" stop-opacity=".4"/>
    </linearGradient>
  </defs>
  <path class="st2" d="M422.12,43.11c-1.12,1.58-6.56.42-5.98-2.47.68-3.4,8.33-.86,5.98,2.47ZM21.36,99.95c3.08-.95,1.13-5.11-2.87-3.88-3.08.95-1.13,5.11,2.87,3.88ZM33.89,76.56c-1.63-3.35-7.54-.65-5.98,1.47.59.8,6.44,1.91,5.98-1.47ZM408.15,60.08c1.55,2.06,6.32-1.25,4.98-2.98-1.76-2.28-6.97.34-4.98,2.98ZM35.9,78.05v2.98s4.98,0,4.98,0c.27-3.05-2.51-3.25-4.98-2.98ZM55.85,46.62l-5.98-1.51c.16,1.15-.39,2.95.15,3.83,1.13,1.86,6.02.71,5.84-2.32ZM60.35,62.08l-4.49,4.47c1.66,2.61,4.97,1,6.98,1.51,1.74-1.06-.1-.98-1-2-1.42-1.61-1.69-.52-1.49-3.99ZM391.19,51.58c.6,2.73,6.7.58,4.98-1.47-.87-1.04-5.61-1.38-4.98,1.47ZM69.82,73.06c-.96.71-2.01,1.32-2.99,2,.09.06-.29,1.89.53,2.04,2.52.47,3.26-1.98,3.47-2.04l-1-2ZM352.71,38.72c-.26.2-.65.59-.85.85-1,1.71-1.03,3.41,0,5.1.2.26.59.65.85.85,1.7.99,3.42,1.05,5.1,0,.28-.21.64-.57.85-.85,1.05-1.69.98-3.4,0-5.1-.2-.26-.59-.65-.85-.85-1.7-1.04-3.4-1-5.1,0ZM74.82,56.58c1.42,2.16,1.88.82,3.98.49v-.98s-3.98.48-3.98.48ZM69.82,60.07h2.99s0-1.98,0-1.98c-1.38-.31-2.65.54-2.99,1.98ZM335.56,77.3c13.52,5.75,15.38-22.56,1.46-20.06-8.25,1.48-9.53,16.63-1.46,20.06ZM146.67,58.08v9.99c5.23,2,13.33-4.21,8.74-8.75-1.72-1.7-6.38-1.18-8.74-1.24ZM299.36,58.08v9.99c5.23,2,13.33-4.21,8.74-8.75-1.72-1.7-6.38-1.18-8.74-1.24ZM214.04,60.09l-4.49,10.97h7.98s-3.48-10.97-3.48-10.97ZM426.61,34.13h-30.94c-1.08,0-4.35,1.99-6.49,1.01,2.46,6.25,29.76,2.1,22.87,11.39-4.1,5.53-25.95-.04-32.85,1.59.88,1.73,4.62.96,6.82,1.65,1,.31,2.68.95,3.15,1.85,1.29,2.47-5.25,1.2-4.98,3.48h15.47c.94,0,5.55,1.43,6.47,2.49-.03,4.35-26.71,3.99-31.45,5.46-1.42.44-1.76-.59-1.46,2.02,15.21,2.63,31.07,1.9,46.3,4.11,1.13.16,8.45,1.41,6.6,3.87-1.52,2.02-44.21,8.46-49.9,7.01,2.59,7.13,24.88,3.4,14.89,11.39l-8.9,2.56c7.57,1.74,16.65,1.36,22.93,6.5,0,1.42-6.34,3.02-7.72,3.23-19.79,3.07-45.15,1.19-65.59,1.29-66.13.32-132.34-1.05-198.66.92-30.44.91-61.18,2.95-91.76.03-1.23-.12-8.17-1.68-8.49-2-2.65-2.66,6.44-2.05,5.98-3.97-3.73-.12-8.23,1.21-9.97-2.99,21.51-5.17,43.84-6.32,65.86-8.01.2-1.45-2.71-1.52-3.77-1.7-7.82-1.32-15.74-1.41-23.66-1.27-3.92.07-16.53,2.55-19.49.51-1.1-.76-1.37-3.1-.98-3.51.52-.55,8.89-.81,10.49-1.01,1.81-.23,1.64.39,1.49-1.98-5.19-.97-13.67.59-16.96-3.98,2.58-.47,4.81-1.76,7.47-2.01,1.93-.18,16.74.52,17.47,1,1.34.33,2.67.33,3.99,0,.36-.94.36-1.94,0-2.99.6-.55,2.04-.79,2-1.99-2.09-.54-4.55,1.21-6.31,1.01-.24-.03-2.12-2.62-3.67-3.01-.88-.75-1.22-1.42-1-2l1.99-3.98-5.49-3c-3.6,6.33-5.49,1.02-5.91,1.04-.85.05-8.4.8-8.85.89-1.24.25-1.36,4.66-5.16,4.1-.51-.08.15-2.71-4.06-2.13-1.96.27-1.38,2.08-2.04,2.1-1.65.06-21.43-4-23.11-4.77-1.04-.48-2.56-.86-1.26-2.22,4.04-4.2,63.38-3.91,72.85-4.02-1.2-3.28-4.72-.7-7.48-.9-3.43-.24-11.51-.75-12.48-4.57,1.37-5.63,23.14,3.43,21.95-5.5l-49.38-3.01c-2.87-.71-6.39-.91-9.11-1.87-1.42-.51-1.68.3-1.39-2.1l77.84-6-25.94-3c-.18-1.45,2.62-1.8,3.57-1.9,31.13-3.3,63.69.83,94.77-1.04,26.7-1.61,46.83-5.65,74.77-4.99,51.84,1.23,107.08,1.33,158.71,4.96,4.03.28,20.05,2.39,21.36,6.59.41,1.33-.55,3.38-1.39,3.38ZM64.83,58.1c-.16.12,1.48,2.79,1.01,3.98,4.01-1.12.58-5.19-1.01-3.98ZM72.81,60.08v-1.99c-1.38-.31-2.65.54-2.99,1.98h2.99ZM78.8,56.1l-3.98.48c1.42,2.16,1.88.82,3.98.49v-.98ZM131.7,75.06c-.52-.58-6.53,2.85-8.56,2.93-13,.51-12.46-22.57.82-20.7,1.7.24,7.22,3.38,7.74,2.79.28-.32.06-3.21-.46-4.02-3.01-4.7-19.35-2.57-21.26,6.75-2.58,12.59,4.07,20.41,16.99,17.99,2.66-.5,7.04-3.15,4.73-5.73ZM164.63,81.03c-.41-2.28-8.97-9.78-8.97-10.47,0-.9,8.06-5.3,4.04-12.04-3.02-5.07-12.07-3.08-17.03-3.42v25.95c6.69,1.63,3.24-5.12,3.99-9.98,8.85-1.78,8.82,11.83,17.96,9.97ZM192.58,55.09h-17.96v25.95h17.96v-2.99h-13.97v-9.98h13.97v-2.99h-13.97v-6.99h13.97v-2.99ZM225.51,81.04l-8.46-24.96c-.86-1.27-5.74-1.44-6.4-.87-1.04.89-6.59,22.81-9.08,25.83,7.51,2.48,4.13-5.66,7.62-6.84,1-.34,8.76-.47,9.73-.2,1.44.39,1.1,9.6,6.59,7.04ZM253.46,58.08v-2.99h-21.96v2.99c.42.45,8.98-.45,8.98,0v22.95c0,.2,3.99.2,3.99,0v-22.95c0-.45,8.56.45,8.99,0ZM284.39,75.06c-.52-.58-6.53,2.85-8.56,2.93-13,.51-12.46-22.57.82-20.7,1.7.24,7.22,3.38,7.74,2.79.28-.32.06-3.21-.46-4.02-3.01-4.7-19.35-2.57-21.26,6.75-2.58,12.59,4.07,20.41,16.99,17.99,2.66-.5,7.04-3.15,4.73-5.73ZM317.33,81.03c-.41-2.28-8.97-9.78-8.97-10.47,0-.9,8.06-5.3,4.04-12.04-3.02-5.07-12.07-3.08-17.03-3.42v25.95c6.69,1.63,3.24-5.12,3.99-9.98,8.85-1.78,8.82,11.83,17.96,9.97ZM334.01,54.31c-10.42,2.37-11.62,25.78,2.74,26.79,20.53,1.43,18.63-31.64-2.74-26.79ZM360.25,38.37c-.29-.39-.86-.96-1.25-1.25-2.5-1.52-5-1.47-7.5,0-.39.29-.96.86-1.25,1.25-1.47,2.51-1.52,5.01,0,7.5.29.39.86.96,1.25,1.25,2.5,1.46,5.02,1.55,7.5,0,.41-.31.94-.84,1.25-1.25,1.55-2.49,1.44-5.01,0-7.5Z"/>
  <g class="st0">
    <g class="st0">
      <text class="st1" transform="translate(67.72 139.09)"><tspan x="0" y="0">MASTER YOUR CREATIVITY</tspan></text>
    </g>
  </g>
</svg>