<?xml version="1.0" encoding="UTF-8"?>
<svg id="Layer_1" xmlns="http://www.w3.org/2000/svg" version="1.1" xmlns:xlink="http://www.w3.org/1999/xlink" viewBox="0 0 600 300">
  <!-- Generator: Adobe Illustrator 30.0.0, SVG Export Plug-In . SVG Version: 2.1.1 Build 123)  -->
  <defs>
    <style>
      .st0 {
        fill: #fff;
      }

      .st1 {
        fill: url(#linear-gradient1);
      }

      .st2 {
        fill: #a66c44;
        font-size: 60px;
        letter-spacing: .03em;
        stroke: #a66c44;
        stroke-miterlimit: 10;
      }

      .st2, .st3, .st4 {
        font-family: MyriadPro-Regular, 'Myriad Pro';
      }

      .st3 {
        fill: #bcbcbc;
      }

      .st3, .st4 {
        font-size: 21px;
        letter-spacing: .1em;
      }

      .st5 {
        fill: url(#linear-gradient);
      }

      .st4 {
        fill: #c6c6c5;
      }
    </style>
    <linearGradient id="linear-gradient" x1="242.57" y1="151.39" x2="8.52" y2="148.8" gradientUnits="userSpaceOnUse">
      <stop offset="0" stop-color="#a66c44"/>
      <stop offset=".26" stop-color="#a66c44" stop-opacity=".73"/>
      <stop offset=".78" stop-color="#a66c44" stop-opacity=".2"/>
    </linearGradient>
    <linearGradient id="linear-gradient1" x1="91.16" y1="137.05" x2="194.18" y2="137.05" gradientUnits="userSpaceOnUse">
      <stop offset="0" stop-color="#a66c44"/>
      <stop offset=".19" stop-color="#a66c44" stop-opacity=".88"/>
      <stop offset=".58" stop-color="#a66c44" stop-opacity=".57"/>
      <stop offset="1" stop-color="#a66c44" stop-opacity=".2"/>
    </linearGradient>
  </defs>
  <g>
    <path class="st5" d="M259.2,192.63c-2.61,15.95-15.23,32.4-31.81,35.39-4.08.73-14.58-.52-16.8,1.07-1.68,1.21-4.34,4.04-4.65,9.34-.08,1.39-3.02,6.64-8.54,4.17-6.23-2.79,6.69-14.37-12.53-14.27-9.75-.2-21.73-.08-30.91.07-10.26.17-19.34-.38-25.27,2.36-6.53,3.01-8.33,10.62-10.15,15.3-2.92,7.49,2.78,22.61-.55,27.73-2.58,3.98-7.82,5.1-10.48,1.29-5.98-8.54-2.02-17.45-1.72-22.66.62-10.7,1.95-6.87-.66-13.68-1.14-2.96-7.65-10.01-10.98-10.43-6.48-.81-11.02,1.46-17.16,3.91-3.35,1.34-7.62,4.02-4.84,16.84,1.3,6.01-.32,15.61-6.86,14.61-7.75-1.39-5-10.59-4.51-12.94.93-4.36,3.24-5.99-.17-16.08-2.32-6.89-9.61-8.53-15.18-12.02-10.14-6.35-16.87-17.23-19.33-28.84,2.34-36.15-3.11-76.22-.02-111.9.79-9.15,7.7-18.7,15.31-23.53,13.06-8.27,20.96-10.4,35.7-10.58l5.67-11.23c0-.78,2.68-4.8,3.29-5.78,2.83-4.58,8.22-7.15,13.44-7.54,28.51-2.14,59.73,1.61,88.53.1,5.51.56,13.31,5.92,16.32,12.66l6.1,11.86c24.65,5.17,43.75,5.24,48.74,33.68v111.09ZM208.21,137.08c0-36.2-29.34-65.54-65.54-65.54s-65.54,29.34-65.54,65.54,29.34,65.54,65.54,65.54,65.54-29.34,65.54-65.54Z"/>
    <path class="st1" d="M194.18,137.05c0,28.45-23.06,51.51-51.51,51.51s-51.51-23.06-51.51-51.51,23.06-51.51,51.51-51.51,51.51,23.06,51.51,51.51ZM171.66,137.05c0-16.01-12.98-28.99-28.99-28.99s-28.99,12.98-28.99,28.99,12.98,28.99,28.99,28.99,28.99-12.98,28.99-28.99Z"/>
  </g>
  <circle class="st0" cx="223.13" cy="81.05" r="9.51"/>
  <g>
    <text class="st4" transform="translate(288.84 178.48)"><tspan x="0" y="0">MASTER YOUR CREATIVITY</tspan></text>
    <text class="st3" transform="translate(288.84 178.48)"><tspan x="0" y="0">MASTER YOUR CREATIVITY</tspan></text>
  </g>
  <text class="st2" transform="translate(285.42 150)"><tspan x="0" y="0">CREATCRO</tspan></text>
</svg>