<?xml version="1.0" encoding="UTF-8"?>
<svg id="Layer_1" xmlns="http://www.w3.org/2000/svg" version="1.1" xmlns:xlink="http://www.w3.org/1999/xlink" viewBox="0 0 487.15 124.85">
  <!-- Generator: Adobe Illustrator 30.0.0, SVG Export Plug-In . SVG Version: 2.1.1 Build 123)  -->
  <defs>
    <style>
      .st0 {
        fill: url(#linear-gradient2);
      }

      .st1 {
        fill: url(#linear-gradient);
      }

      .st1, .st2 {
        isolation: isolate;
      }

      .st3 {
        fill: url(#linear-gradient1);
      }

      .st4 {
        fill: url(#linear-gradient3);
      }
    </style>
    <linearGradient id="linear-gradient" x1="126.39" y1="63.37" x2="465.53" y2="63.37" gradientUnits="userSpaceOnUse">
      <stop offset="0" stop-color="#457ea6"/>
      <stop offset="1" stop-color="#a66d45" stop-opacity=".4"/>
    </linearGradient>
    <linearGradient id="linear-gradient1" x1="14.33" y1="60.86" x2="105.81" y2="60.86" gradientUnits="userSpaceOnUse">
      <stop offset="0" stop-color="#457ea6"/>
      <stop offset=".28" stop-color="#687782" stop-opacity=".78"/>
      <stop offset=".78" stop-color="#a66d45" stop-opacity=".4"/>
    </linearGradient>
    <linearGradient id="linear-gradient2" x1="33.44" y1="60.86" x2="86.7" y2="60.86" xlink:href="#linear-gradient1"/>
    <linearGradient id="linear-gradient3" x1="99.78" y1="21.49" x2="108.15" y2="21.49" xlink:href="#linear-gradient1"/>
  </defs>
  <g class="st2">
    <path class="st1" d="M158.68,69.8l5.68,1.44c-1.19,4.67-3.34,8.23-6.43,10.68-3.1,2.45-6.88,3.68-11.35,3.68s-8.39-.94-11.29-2.83c-2.9-1.88-5.11-4.61-6.62-8.19-1.51-3.57-2.27-7.41-2.27-11.51,0-4.47.85-8.37,2.56-11.7,1.71-3.33,4.14-5.86,7.29-7.59,3.15-1.73,6.63-2.59,10.42-2.59,4.3,0,7.91,1.09,10.84,3.28s4.97,5.26,6.12,9.23l-5.6,1.32c-1-3.12-2.44-5.4-4.34-6.83-1.89-1.43-4.28-2.14-7.15-2.14-3.3,0-6.06.79-8.28,2.37-2.22,1.58-3.77,3.71-4.67,6.37-.9,2.67-1.35,5.42-1.35,8.25,0,3.65.53,6.84,1.6,9.57,1.06,2.72,2.72,4.76,4.97,6.11,2.25,1.35,4.68,2.02,7.29,2.02,3.18,0,5.88-.92,8.09-2.75,2.21-1.84,3.7-4.56,4.48-8.17ZM173.25,84.86v-42.95h19.04c3.83,0,6.74.39,8.73,1.16s3.58,2.13,4.78,4.09c1.19,1.95,1.79,4.11,1.79,6.47,0,3.05-.99,5.62-2.96,7.71-1.97,2.09-5.02,3.42-9.14,3.98,1.5.72,2.65,1.44,3.43,2.14,1.66,1.52,3.23,3.43,4.72,5.71l7.47,11.69h-7.15l-5.68-8.94c-1.66-2.58-3.03-4.55-4.1-5.92-1.07-1.37-2.04-2.32-2.89-2.87s-1.71-.93-2.59-1.14c-.64-.14-1.7-.21-3.16-.21h-6.59v19.07h-5.68ZM178.93,60.86h12.22c2.6,0,4.63-.27,6.09-.81s2.58-1.4,3.34-2.58,1.14-2.47,1.14-3.85c0-2.03-.74-3.7-2.21-5.01-1.48-1.31-3.8-1.96-6.99-1.96h-13.59v14.21ZM218.41,84.86v-42.95h31.06v5.07h-25.37v13.15h23.76v5.04h-23.76v14.62h26.37v5.07h-32.05ZM255.39,84.86l16.49-42.95h6.12l17.58,42.95h-6.47l-5.01-13.01h-17.96l-4.72,13.01h-6.04ZM267.79,67.22h14.56l-4.48-11.89c-1.37-3.61-2.38-6.58-3.05-8.91-.55,2.75-1.32,5.49-2.31,8.2l-4.72,12.6ZM308.4,84.86v-37.88h-14.15v-5.07h34.04v5.07h-14.21v37.88h-5.68ZM366.57,69.8l5.68,1.44c-1.19,4.67-3.33,8.23-6.43,10.68-3.1,2.45-6.88,3.68-11.35,3.68s-8.39-.94-11.29-2.83c-2.9-1.88-5.11-4.61-6.62-8.19s-2.27-7.41-2.27-11.51c0-4.47.85-8.37,2.56-11.7s4.14-5.86,7.29-7.59,6.63-2.59,10.42-2.59c4.3,0,7.91,1.09,10.84,3.28s4.97,5.26,6.12,9.23l-5.6,1.32c-1-3.12-2.44-5.4-4.34-6.83s-4.28-2.14-7.15-2.14c-3.3,0-6.06.79-8.28,2.37s-3.77,3.71-4.67,6.37-1.35,5.42-1.35,8.25c0,3.65.53,6.84,1.6,9.57s2.72,4.76,4.97,6.11,4.68,2.02,7.29,2.02c3.18,0,5.88-.92,8.09-2.75s3.7-4.56,4.48-8.17ZM381.14,84.86v-42.95h19.04c3.83,0,6.74.39,8.73,1.16s3.58,2.13,4.78,4.09,1.79,4.11,1.79,6.47c0,3.05-.99,5.62-2.96,7.71s-5.02,3.42-9.14,3.98c1.5.72,2.65,1.44,3.43,2.14,1.66,1.52,3.23,3.43,4.72,5.71l7.47,11.69h-7.15l-5.68-8.94c-1.66-2.58-3.03-4.55-4.1-5.92s-2.04-2.32-2.89-2.87-1.71-.93-2.59-1.14c-.64-.14-1.7-.21-3.16-.21h-6.59v19.07h-5.68ZM386.83,60.86h12.22c2.6,0,4.63-.27,6.09-.81s2.58-1.4,3.34-2.58,1.14-2.47,1.14-3.85c0-2.03-.74-3.7-2.21-5.01s-3.8-1.96-6.99-1.96h-13.59v14.21ZM424.46,63.94c0-7.13,1.91-12.71,5.74-16.74s8.77-6.05,14.82-6.05c3.96,0,7.54.95,10.72,2.84s5.61,4.54,7.28,7.92,2.5,7.23,2.5,11.53-.88,8.25-2.64,11.69-4.25,6.04-7.47,7.81c-3.22,1.77-6.7,2.65-10.43,2.65-4.04,0-7.66-.98-10.84-2.93-3.18-1.95-5.6-4.62-7.24-8s-2.46-6.95-2.46-10.72ZM430.32,64.03c0,5.18,1.39,9.25,4.18,12.23s6.27,4.47,10.47,4.47,7.8-1.5,10.56-4.51,4.14-7.28,4.14-12.8c0-3.5-.59-6.55-1.77-9.16s-2.91-4.63-5.19-6.06-4.83-2.15-7.66-2.15c-4.02,0-7.48,1.38-10.38,4.15s-4.35,7.38-4.35,13.84Z"/>
  </g>
  <path class="st3" d="M60.07,15.12c-25.26,0-45.74,20.48-45.74,45.74s20.48,45.74,45.74,45.74,45.74-20.48,45.74-45.74S85.33,15.12,60.07,15.12ZM60.07,92.97c-17.73,0-32.11-14.38-32.11-32.11s14.38-32.11,32.11-32.11,32.11,14.38,32.11,32.11-14.38,32.11-32.11,32.11Z"/>
  <path class="st0" d="M60.07,34.23c-14.71,0-26.63,11.92-26.63,26.63s11.92,26.63,26.63,26.63,26.63-11.92,26.63-26.63-11.92-26.63-26.63-26.63ZM60.07,79.56c-10.33,0-18.7-8.37-18.7-18.7s8.37-18.7,18.7-18.7,18.7,8.37,18.7,18.7-8.37,18.7-18.7,18.7Z"/>
  <path class="st4" d="M103.96,17.31c-2.31,0-4.19,1.87-4.19,4.19s1.87,4.19,4.19,4.19,4.19-1.87,4.19-4.19-1.87-4.19-4.19-4.19ZM103.96,24.43c-1.62,0-2.94-1.32-2.94-2.94s1.32-2.94,2.94-2.94,2.94,1.32,2.94,2.94-1.32,2.94-2.94,2.94Z"/>
</svg>