<?xml version="1.0" encoding="UTF-8"?>
<svg id="Layer_1" data-name="Layer 1" xmlns="http://www.w3.org/2000/svg" xmlns:xlink="http://www.w3.org/1999/xlink" viewBox="0 0 609.7 296.15">
  <defs>
    <style>
      .cls-1 {
        letter-spacing: .05em;
      }

      .cls-2 {
        letter-spacing: .1em;
      }

      .cls-3 {
        fill: url(#linear-gradient-2);
      }

      .cls-4 {
        letter-spacing: .03em;
      }

      .cls-5 {
        fill: #fff;
      }

      .cls-6 {
        letter-spacing: .03em;
      }

      .cls-7 {
        letter-spacing: .1em;
      }

      .cls-8 {
        fill: #bcbcbc;
      }

      .cls-8, .cls-9, .cls-10 {
        font-family: MyriadPro-Regular, 'Myriad Pro';
      }

      .cls-8, .cls-10 {
        font-size: 21px;
      }

      .cls-11 {
        letter-spacing: .06em;
      }

      .cls-12 {
        letter-spacing: .13em;
      }

      .cls-13 {
        letter-spacing: .03em;
      }

      .cls-14 {
        letter-spacing: .02em;
      }

      .cls-9 {
        fill: #a66c44;
        font-size: 60px;
        stroke: #a66c44;
        stroke-miterlimit: 10;
      }

      .cls-10 {
        fill: #c6c6c5;
      }

      .cls-15 {
        letter-spacing: .09em;
      }

      .cls-16 {
        letter-spacing: -.05em;
      }

      .cls-17 {
        fill: url(#linear-gradient);
      }

      .cls-18 {
        letter-spacing: 0em;
      }
    </style>
    <linearGradient id="linear-gradient" x1="246.83" y1="152.94" x2="12.78" y2="150.35" gradientUnits="userSpaceOnUse">
      <stop offset="0" stop-color="#a66c44"/>
      <stop offset=".26" stop-color="#a66c44" stop-opacity=".73"/>
      <stop offset=".78" stop-color="#a66c44" stop-opacity=".2"/>
    </linearGradient>
    <linearGradient id="linear-gradient-2" x1="95.42" y1="138.6" x2="198.44" y2="138.6" gradientUnits="userSpaceOnUse">
      <stop offset="0" stop-color="#a66c44"/>
      <stop offset=".19" stop-color="#a66c44" stop-opacity=".88"/>
      <stop offset=".58" stop-color="#a66c44" stop-opacity=".57"/>
      <stop offset="1" stop-color="#a66c44" stop-opacity=".2"/>
    </linearGradient>
  </defs>
  <g>
    <path class="cls-17" d="M263.46,194.18c-2.61,15.95-15.23,32.4-31.81,35.39-4.08.73-14.58-.52-16.8,1.07-1.68,1.21-4.34,4.04-4.65,9.34-.08,1.39-3.02,6.64-8.54,4.17-6.23-2.79,6.69-14.37-12.53-14.27-9.75-.2-21.73-.08-30.91.07-10.26.17-19.34-.38-25.27,2.36-6.53,3.01-8.33,10.62-10.15,15.3-2.92,7.49,2.78,22.61-.55,27.73-2.58,3.98-7.82,5.1-10.48,1.29-5.98-8.54-2.02-17.45-1.72-22.66.62-10.7,1.95-6.87-.66-13.68-1.14-2.96-7.65-10.01-10.98-10.43-6.48-.81-11.02,1.46-17.16,3.91-3.35,1.34-7.62,4.02-4.84,16.84,1.3,6.01-.32,15.61-6.86,14.61-7.75-1.39-5-10.59-4.51-12.94.93-4.36,3.24-5.99-.17-16.08-2.32-6.89-9.61-8.53-15.18-12.02-10.14-6.35-16.87-17.23-19.33-28.84,2.34-36.15-3.11-76.22-.02-111.9.79-9.15,7.7-18.7,15.31-23.53,13.06-8.27,20.96-10.4,35.7-10.58l5.67-11.23c0-.78,2.68-4.8,3.29-5.78,2.83-4.58,8.22-7.15,13.44-7.54,28.51-2.14,59.73,1.61,88.53.1,5.51.56,13.31,5.92,16.32,12.66l6.1,11.86c24.65,5.17,43.75,5.24,48.74,33.68v111.09ZM212.47,138.63c0-36.2-29.34-65.54-65.54-65.54s-65.54,29.34-65.54,65.54,29.34,65.54,65.54,65.54,65.54-29.34,65.54-65.54Z"/>
    <path class="cls-3" d="M198.44,138.6c0,28.45-23.06,51.51-51.51,51.51s-51.51-23.06-51.51-51.51,23.06-51.51,51.51-51.51,51.51,23.06,51.51,51.51ZM175.91,138.6c0-16.01-12.98-28.99-28.99-28.99s-28.99,12.98-28.99,28.99,12.98,28.99,28.99,28.99,28.99-12.98,28.99-28.99Z"/>
  </g>
  <circle class="cls-5" cx="227.38" cy="82.59" r="9.51"/>
  <g>
    <text class="cls-10" transform="translate(294.57 180.02)"><tspan class="cls-15" x="0" y="0">M</tspan><tspan class="cls-7" x="18.77" y="0">ASTER</tspan><tspan class="cls-1" x="84.55" y="0"> </tspan><tspan class="cls-11" x="90.13" y="0">Y</tspan><tspan class="cls-7" x="102.84" y="0">OUR CRE</tspan><tspan class="cls-14" x="195.15" y="0">A</tspan><tspan class="cls-7" x="208.49" y="0">TIVI</tspan><tspan class="cls-12" x="249.08" y="0">T</tspan><tspan class="cls-2" x="262.2" y="0">Y</tspan></text>
    <text class="cls-8" transform="translate(294.57 180.02)"><tspan class="cls-15" x="0" y="0">M</tspan><tspan class="cls-7" x="18.77" y="0">ASTER</tspan><tspan class="cls-1" x="84.55" y="0"> </tspan><tspan class="cls-11" x="90.13" y="0">Y</tspan><tspan class="cls-7" x="102.84" y="0">OUR CRE</tspan><tspan class="cls-14" x="195.15" y="0">A</tspan><tspan class="cls-7" x="208.49" y="0">TIVI</tspan><tspan class="cls-12" x="249.08" y="0">T</tspan><tspan class="cls-2" x="262.2" y="0">Y</tspan></text>
  </g>
  <text class="cls-9" transform="translate(289.67 151.55)"><tspan class="cls-13" x="0" y="0">CRE</tspan><tspan class="cls-16" x="102" y="0">A</tspan><tspan class="cls-18" x="135.9" y="0">T</tspan><tspan class="cls-13" x="165.9" y="0">C</tspan><tspan class="cls-4" x="202.5" y="0">R</tspan><tspan class="cls-6" x="236.76" y="0">O</tspan></text>
</svg>